<?xml version="1.0" encoding="UTF-8"?><svg id="Layer_1" xmlns="http://www.w3.org/2000/svg" viewBox="0 0 1700 400"><path d="M1451.61,171.6c-148.42,5.45-274.7-124.43-550.02-159.56C632.45-22.31,495.36,151.15,285.12,163.64,205.78,168.35,166.82,150.35,0,16.77v390.77h1700V66.12c-62.59,51.44-143.25,101.62-248.39,105.48ZM1005.52,82.78c-6.48,0-11.74-5.26-11.74-11.74s5.26-11.74,11.74-11.74,11.74,5.26,11.74,11.74-5.26,11.74-11.74,11.74ZM1033.7,107.22c-4.14,0-7.5-3.36-7.5-7.5s3.36-7.5,7.5-7.5,7.5,3.36,7.5,7.5-3.36,7.5-7.5,7.5ZM1045.43,86.54c-4.14,0-7.5-3.36-7.5-7.5s3.36-7.5,7.5-7.5,7.5,3.36,7.5,7.5-3.36,7.5-7.5,7.5Z" style="fill:#2d4c4a;"/></svg>