<?xml version="1.0" encoding="UTF-8"?>
<svg id="Layer_1" data-name="Layer 1" xmlns="http://www.w3.org/2000/svg" viewBox="0 0 924.79 525.7">
  <g>
    <g>
      <path d="M304.13,311.25c4.51-17.32,22.77-39.29,38.29-39.85,17.29-.62,59.01,15.34,72.23,36.96,9.59,15.68-10.24,38.8,4.46,39.22,13.66.39,25.62-12.1,49.55-37.07,29.15-30.43,27.74-42.56,45.41-50.58,27.67-12.56,48.31.74,61.83,7.67,29.67,15.23,62.35,62.48,69.96,74.24,19.93,30.77-110.35,27.8-113.31,50.61-1.26,9.75,3.75,7.66,5.52,22.96,2.6,22.52-38.86,54.58-77.97,58.43-79.05,7.78-173.04-97-155.97-162.59Z" fill="#d3dbd5"/>
      <path d="M344.43,314.57c9.31.42,19.5,1.22,26.21,7.68,5.27,5.07,7.23,12.59,8.93,19.7,9.34,39.06,17.75,78.34,25.21,117.79,16.15,6.05,33.49,8.93,50.72,8.4-.14,12.54-.29,25.08-.43,37.62-82.84-16.59-167.48-24.17-251.95-22.56.48,0-42.41-156.7-31.49-170.15,10.49-12.91,54.92-3.27,68.98-2.75,34.61,1.27,69.22,2.69,103.82,4.27Z" fill="#90b7b6"/>
      <path d="M471.53,394.24c-9.19-4.5-20.81-8.83-28.95-2.62-2.25,1.71-3.91,4.06-5.53,6.38-9,12.79-17.99,25.58-26.99,38.37,7.83,1.76,10.32,11.41,15.13,17.84,12.16,16.23,37.23,10.32,57.2,13.83,16.5,2.89,30.63,13.04,44.97,21.7,28.72,17.34,60.51,29.58,93.44,35.97,12.55-25.09,18.01-53.07,22.08-80.83,5-34.15,6.42-73.64-18.03-98.01-3.17-3.16-70.9,28.85-78.76,31.9-25.36,9.82-28.85,19.07-16.88,43.52-19.57-8.41-38.54-18.66-57.69-28.04Z" fill="#fef7e8"/>
      <path d="M430.64,192.92c2.44,1.54,4.95,3.22,6.3,5.77,1.05,1.99,1.26,4.29,1.46,6.52.97,10.94,1.95,21.88,2.92,32.82,3.33-12.86,12.63-24.03,24.67-29.63,6.98,9.32,13.95,18.64,20.92,27.96-6.84,3.59-13.88,7.35-18.68,13.41-8.19,10.36-7.99,24.95-6,38.01,1.98,13.06,5.05,12.81,1.83,25.62-22.91,7.25-17.51,19.62-59.7,36.25,2.06-24.33-16.37-42.49-40.16-47.99-4.88-1.13-10.2-1.66-14.05-4.87-4.08-3.4-5.5-8.96-6.65-14.14-5.9-26.6-10.62-53.47-14.13-80.49-.39-3.03-.76-6.19.25-9.07,1.27-3.63,4.47-6.18,7.52-8.52,17.27-13.24,24.54-24.98,45.84-16.43,16.71,6.7,32.23,15.63,47.67,24.79Z" fill="#fef7e8"/>
      <path d="M311.37,175.16c-1.89,16.25-3.29,30.19-3.29,30.19,0,0,6.72,32.06,9.19,36.95,7.63,15.14,16.11,16.72,20.04,25.97.65-17.39-3.59-50.22-2.94-67.61.35-9.46,15.14-11.63,18.69-20.41,3.55-8.78.68-6.88,10.05-8.25,7.01-1.02,20.54,6.78,27.13,9.37,11.56,4.55,15.86-.52,27.42,4.03,2.98,1.17,5.29,5.72,7.37,8.17,1.98,2.32,3.55,2.12,4.27,5.08,2.76,11.35,1.7,27.41,9.85,31.3,13.59.84,4.86-13.9,24.91-19.36,6.78,4.47,15.21,17.8,12.62,25.49-2.59,7.7-4.79,6.43-8.45,13.69-11.88,23.58,2.66,66.52,9.3,92.07-2.54-36.61,16.35-79.39,52.85-83.21-13.04-32.57-17.59-77.58-34.48-108.34-30.57-55.65-48.38-42.63-87.97-43.85-12.74-.39-18.7-6.09-31.26-2.05-31.09,10-61.88,41.32-65.31,70.77Z" fill="#a84b3d"/>
      <g>
        <path d="M441.16,473.8h-33.57c-.96,0-1.78-.68-1.96-1.62l-26.29-135.38c-.03-.16-.04-.32-.03-.49.04-.88.12-8.64-8.73-9.09-32.86-1.64-187.58-13.87-189.14-13.99-1.1-.09-1.92-1.05-1.84-2.15.09-1.1,1.04-1.92,2.15-1.84,1.56.12,156.22,12.34,189.03,13.98,3.95.2,7.07,1.54,9.27,3.98,3.08,3.42,3.27,7.88,3.26,9.04l25.94,133.55h31.92c1.1,0,2,.9,2,2s-.9,2-2,2Z" fill="#2d4d4a"/>
        <path d="M403.87,490.32c-13.12,0-26.22-1.89-38.97-3.72l-2.89-.42c-52.47-7.5-101.15-12.03-148.82-13.84-1.32-.05-3.53-.13-5.1-1.62-1.23-1.16-1.63-2.78-1.89-3.85-11.78-48.06-22.12-97.14-30.75-145.87-.19-1.09.53-2.13,1.62-2.32,1.09-.19,2.13.53,2.32,1.62,8.61,48.65,18.93,97.64,30.69,145.62.17.69.38,1.54.75,1.89.48.46,1.7.5,2.5.53,47.81,1.82,96.62,6.36,149.24,13.88l2.89.42c14.97,2.15,30.44,4.38,45.63,3.47,12.61-.76,30.49-4.18,44.08-16.19.83-.73,2.09-.65,2.82.17.73.83.65,2.09-.17,2.82-14.45,12.76-33.26,16.39-46.49,17.19-2.49.15-4.98.22-7.47.22Z" fill="#2d4d4a"/>
        <g>
          <path d="M287.36,366.62c-21.45-3.89-39.41,7.62-40.13,25.72s16.08,35.93,37.53,39.83c21.45,3.89,39.41-7.62,40.13-25.72s-16.08-35.93-37.53-39.83ZM285.02,425.62c-17.16-3.12-30.6-17.38-30.02-31.86.57-14.48,14.95-23.69,32.11-20.58,17.16,3.12,30.6,17.38,30.02,31.86-.57,14.48-14.95,23.69-32.11,20.58Z" fill="#2d4d4a"/>
          <g>
            <path d="M310.4,412.56c-2,5.44-8.26,8.06-13.65,8.86-6.99,1.05-14.04-.38-20.26-3.64-2.8-1.47-5.43-3.3-7.86-5.35-2.56-2.17-4.69-4.68-6.05-7.78-1.87-4.27-2.37-9.08-1.36-13.66.45-2.03,1.61-3.86,3.01-5.39,3.29-3.6,7.7-6.02,12.52-6.98s9.46-.87,14,.32,8.4,3.43,11.83,6.28,5.95,6.61,7.39,10.85c.83,2.44,1.72,4.85,2.07,7.4.5,3.64-.43,5.78-1.65,9.09ZM292.49,392.21c1.95-2.56,5.11-3.4,8.04-2.29,1.42.53,2.82,1.21,3.88,2.3,1.22,1.23,1.87,2.76,1.45,4.48,1.17.36,2.32.71,3.49,1.17-.31-1.06-.69-2-1.07-3.03-2.15-5.68-6.93-10.18-12.31-12.82-1.79-.88-3.61-1.7-5.58-2.18-4.04-.97-8.27-1.07-12.36-.37-4.91.84-9.45,3.22-12.78,6.9-1.33,1.47-2.33,3.19-2.83,5.08,2.91-.43,5.88-.97,8.89-.92-.18-.39-.02-.71.02-1.07.19-1.58,1.28-2.71,2.82-3.18,2.38-.62,5.04-.28,7.26.81,1.5.8,2.6,2.09,2.98,3.71,2.78.19,5.51.55,8.12,1.42ZM279.47,393.74c1.02-.41,2.1-.6,3.02-1.17.86-.54.73-1.79.36-2.64-1.09-2.54-4.98-3.19-7.49-2.81-.81.12-1.47.4-2.07,1.04-.67.7-1.13,2.25-.57,3.17s1.58,1.48,2.42,2.02c1.32.84,2.84.99,4.32.4ZM298.62,398.67c2.12,1,4.71.29,5.83-1.82.71-1.33.15-3.08-.96-4.1-1.3-1.2-2.93-2.01-4.69-2.24-2.01-.26-3.88.65-5.14,2.27-.64.82-.21,2.22.46,2.96,1.24,1.36,2.8,2.13,4.49,2.93ZM305.51,397.62c-1.35,2.1-3.87,3.01-6.31,2.29-1.7-.5-3.25-1.45-4.72-2.47-1.7-1.18-2.35-2.25-2.39-4.31-2.49-.85-5.08-1.14-7.73-1.33-.17,1.14-1.01,1.77-2.07,2.15l-2.41.85c-1.77.6-3.6.38-5.2-.56-1.28-.71-2.37-1.65-3.39-2.71-3.07.07-6.03.56-9.08,1.06-.93,6.58.87,13.17,5.75,17.89,7.5,7.03,17.15,11.33,27.63,10.06,4.95-.6,11.07-2.9,13.28-7.69.54-1.17.91-2.34,1.32-3.55.56-1.63.84-3.26.71-4.98-.16-1.77-.58-3.48-1.14-5.19-1.39-.62-2.79-1.06-4.25-1.49Z"/>
            <path d="M287.18,410.09c-1.69-.12-3.27-.63-4.4-1.89-.57-.64-1.11-1.29-1.52-2.07-1.06-2.04-1.61-4.25-1.88-6.53-.39-.31-2.73-1.72-1.81-2.29s1.2.9,2.68,1.5c.6.24,1.17.21,1.65-.31l1.87-2c.88-.94,2.11-1.21,3.12-.3,1.23-.67,2.39.46,3.07,1.42.9,1.26,1.71,2.51,2.76,3.63.69.74,1.78,1.27,2.72.86.33-.14.7-.31.97-.17.25.13.68.49.37.83-.61.68-1.69.68-2.59.54-.39,1.42-.82,2.74-1.53,3.95-1.16,1.97-3.19,3-5.49,2.83ZM287.93,397.98c.06-.3.34-.63-.02-.89-.28.45-.71.58-1.13.33-.25-.15-.53-.23-.76-.47-.15.98-.4,3.39.19,4.31,1.32.32,1.52-2.26,1.72-3.27ZM283.56,401.12c.37-.44.65-.88.88-1.33l.07-2.03-1.8,1.86c.26.54.44,1.05.85,1.5ZM291.07,401.2c0-.11-.09-.2-.17-.31l-1.68-2.22c-.15,2-1.23,2.64.26,4.16.63.15,1.59-1.58,1.59-1.64ZM290.23,403.82c-1.1.28-2.09-.58-2.45-1.59-1.09.1-1.83.67-2.78-.63-.68.78-1.65.81-2.4.12-.46-.43-.77-1.01-1.06-1.59-.29-.1-.55-.02-.83-.03.19,1.81.67,3.48,1.38,5.16,3.07-2.15,6.58.05,8.7,2.44,1.19-1.41,1.77-3.09,2.2-4.85-.24-.25-.58-.46-.98-.71-.46.71-.9,1.45-1.77,1.67ZM290.01,408.31c-1.79-1.87-4.86-4.29-7.27-1.95.35.77.95,1.3,1.59,1.83,1.3,1.07,4.2,1.25,5.69.12Z"/>
            <path d="M293.83,410.72c-2.3,1.93-5.89,2.48-8.73,1.79-2.1-.51-3.84-1.91-4.66-3.89.14-.4.53-.35.8-.31.38.06.42.32.6.64.71,1.28,1.99,2.26,3.45,2.58,2.5.55,5.15.1,7.24-1.34.29-.2.47-.34.81-.22.28.1.53.28.5.73Z"/>
            <path d="M284.56,395.29c-.46.2-1.02.16-1.2-.36-.09-.25.2-.47.38-.54,2.68-1.14,5.54-.19,7.02,2.28-.07.25-.23.43-.46.46-.17.02-.52.01-.65-.21-1.06-1.74-3.12-2.48-5.08-1.62Z"/>
            <path d="M272.5,411.36c-.18.21-.49.1-.65.03-.19-.09-.54-.39-.38-.67.49-.82,1.07-1.6,1.64-2.38.16-.22.51-.09.7-.01.21.09.41.32.39.63-.57.79-1.07,1.63-1.7,2.39Z"/>
            <path d="M295.57,414.66c.03.34-.45.34-.63.3-.23-.05-.48-.21-.56-.46l-.64-1.86c-.1-.3.39-.49.61-.45.3.06.56.23.66.56.18.61.51,1.24.56,1.92Z"/>
            <path d="M284.33,417.49c-.21.3-.62.16-.86-.01-.28-.21-.33-.56-.17-.9.2-.43.23-.9.39-1.34.1-.28.54-.26.75-.18.23.09.57.29.45.62-.22.61-.2,1.29-.56,1.82Z"/>
            <path d="M289.03,417.84c-.06.35-.53.28-.73.19-.28-.13-.44-.39-.48-.72-.07-.58-.42-1.15-.29-1.73.07-.31.46-.3.69-.25.28.07.46.26.52.6.11.6.36,1.27.29,1.91Z"/>
            <path d="M267.22,406.6c-.17.18-.55.2-.74.08-.15-.1-.5-.28-.4-.55.18-.48.65-.8.98-1.15.26-.28.53-.4.86-.28.24.08.65.49.39.76l-1.09,1.14Z"/>
            <path d="M281.14,385.72c-.72-.72-1.51-1.27-2.4-1.72-1.76-.88-3.78-.6-5.16.82-.22.22-.5.39-.73.33-.34-.09-.66-.34-.63-.69,1.51-1.84,3.99-2.47,6.24-1.64,1.4.52,2.65,1.39,3.64,2.5-.02.24-.18.46-.32.48-.19.02-.46.08-.63-.09Z"/>
            <path d="M301.05,388.69c-.68-1-1.52-1.87-2.62-2.32-1.37-.57-2.87-.17-4.04.71-.27.2-.55.41-.84.29-.22-.09-.67-.5-.51-.73,2.01-1.91,5-2.08,7.14-.36.41.33,2.39,2.11,2.06,2.61-.27.4-.92.19-1.19-.2Z"/>
            <g>
              <path d="M299.43,408.33c-.35-.04-.54-.19-.65-.51-.26-.82-1.25-2.71-.16-2.52.17.03.45.1.56.33.24.52,1.01,2.18.71,2.58-.09.12-.28.14-.46.12Z"/>
              <g>
                <path d="M303.04,406.3c-.1.33-.51.37-.74.31-.26-.07-.5-.23-.58-.55-.26-1.08-.82-2.05-1.01-3.16-.01-.32.51-.37.72-.31.32.09.46.36.57.67l1.05,3.03Z"/>
                <path d="M305.64,406.28c-.19.38-.57.37-.83.3-.33-.09-.46-.4-.6-.7l-.95-2.07c0-.26.3-.46.51-.45.19,0,.52.07.64.29.45.84.8,1.74,1.23,2.64Z"/>
              </g>
            </g>
            <path d="M301.76,395.86c-.75.01-1.46-.44-1.77-1.04-.34-.66-.4-1.65.15-2.13s1.29-.3,1.75,0c1.22.8.93,2.49.69,2.75-.17.19-.47.42-.81.43Z"/>
            <path d="M278.75,390.98c-.69-.54-1.12-1.8-.42-2.48.57-.56,1.69-.13,2.17.36.55.57.8,1.6.24,2.23-.52.59-1.42.34-1.99-.1Z"/>
            <g>
              <path d="M302.52,415.98c.08.29-.32.41-.49.4-.2-.02-.5-.09-.63-.35-.43-.89-.87-1.8-1.19-2.75-.08-.24.2-.41.34-.43.18-.02.49,0,.67.16.48.94,1,1.93,1.3,2.97Z"/>
              <path d="M305.96,413.65c.1.23-.24.39-.37.42s-.41,0-.57-.12c-.54-.69-.95-1.49-1.47-2.23-.16-.24-.18-.59.01-.74.16-.12.6-.19.79.04.62.76,1.19,1.67,1.61,2.63Z"/>
            </g>
            <g>
              <path d="M271.68,400.29c-.05.25-.52.24-.69.17-.22-.08-.53-.23-.49-.5l.46-2.65c.2-.2.56-.3.79-.17.28.16.52.37.46.69l-.52,2.47Z"/>
              <path d="M269.68,399.2c-.12.27-.55.25-.74.18-.25-.1-.58-.35-.47-.64.48-1.34.36-2.82,1.39-2.38.22.09.46.37.39.66l-.57,2.19Z"/>
              <path d="M267.66,398.86c-.11.32-.53.28-.79.16-.2-.09-.44-.33-.35-.66.17-.66.31-1.35.59-1.99.16-.36,1.14-.1,1.11.28-.06.78-.31,1.46-.56,2.21Z"/>
            </g>
          </g>
        </g>
        <path d="M403.09,341.33c-.23,0-.46-.04-.69-.12-1.04-.38-1.57-1.53-1.19-2.57,2.67-7.31.59-16.08-5.3-22.35-4.07-4.33-9.07-5.13-14.87-6.07-3.02-.49-6.14-.99-9.28-2.05-12.42-4.17-22.71-12.45-28.23-22.73-5.44-10.13-6.41-22-7.27-32.48l-3.88-47.46c-.09-1.1.73-2.07,1.83-2.16,1.1-.1,2.07.73,2.16,1.83l3.88,47.46c.82,10.08,1.76,21.52,6.81,30.91,5.04,9.39,14.51,16.98,25.98,20.83,2.83.95,5.79,1.43,8.64,1.89,5.97.97,12.15,1.96,17.15,7.28,6.92,7.36,9.33,17.75,6.14,26.46-.3.81-1.06,1.31-1.88,1.31Z" fill="#2e4c4a"/>
        <path d="M304.13,315.39c-.08,0-.16,0-.23-.01-1.1-.13-1.88-1.12-1.75-2.22,1.39-11.93,9.48-21.87,15.98-29.85.8-.98,1.7-2.09,2.92-2.95.87-.62,2.34-1.25,3.41-1.67.34-.13.67-.28,1.01-.44,1.79-.87,7.83-3.86,10.64-6.02.88-.67,2.13-.51,2.8.37.67.88.51,2.13-.37,2.8-3.02,2.33-8.93,5.28-11.33,6.45-.43.21-.85.4-1.3.57-1.17.46-2.15.92-2.55,1.21-.77.55-1.46,1.39-2.13,2.21-6.17,7.58-13.85,17.02-15.11,27.79-.12,1.02-.98,1.77-1.98,1.77Z" fill="#2e4c4a"/>
        <path d="M609.29,521.85c-1.03,0-2.05-.03-3.04-.08-43.19-2.17-87.14-22.77-123.76-57.99-.8-.77-.82-2.03-.05-2.83s2.03-.82,2.83-.05c35.92,34.55,78.96,54.75,121.19,56.88,4.86.24,10.3.09,13.75-2.94,1.95-1.71,3.16-4.2,4.32-6.82,14.26-32.08,18.45-69.71,12.12-108.83-5.4-33.35-18.58-68.24-39.18-103.7-4.67-8.03-9.85-16.39-17.31-22.48-6.78-5.54-15.86-9.42-26.98-11.55-11.42-2.19-28.47-3.23-44.88,4.23-14.56,6.61-25.32,18.91-28.79,32.89-.27,1.07-1.36,1.72-2.42,1.46-1.07-.27-1.72-1.35-1.46-2.42,3.77-15.16,15.36-28.46,31.02-35.57,17.37-7.89,35.3-6.81,47.29-4.51,11.79,2.26,21.46,6.42,28.76,12.38,7.98,6.51,13.6,15.58,18.24,23.56,20.85,35.88,34.2,71.23,39.67,105.07,6.45,39.89,2.16,78.3-12.41,111.1-1.3,2.92-2.78,5.96-5.34,8.2-3.73,3.27-8.73,4.01-13.55,4.01Z" fill="#2e4c4a"/>
        <path d="M418.87,424.27c-1.08,0-1.97-.86-2-1.94-.29-10.35,5.19-20.59,13.96-26.09,6.72-4.22,14.78-5.53,22.48-6.32,7.15-.74,16.54-1.39,25.81.13,19.1,3.13,35.51,14.8,50,25.1.9.64,1.11,1.89.47,2.79-.64.9-1.89,1.11-2.79.47-14.13-10.05-30.14-21.43-48.32-24.41-8.81-1.44-17.85-.81-24.75-.1-7.23.74-14.74,1.95-20.77,5.73-7.59,4.76-12.34,13.63-12.09,22.59.03,1.1-.84,2.02-1.94,2.05-.02,0-.04,0-.06,0Z" fill="#2e4c4a"/>
        <path d="M424.46,443.8c-3.04,0-8.54-1.8-9.79-4.71-.85-1.97-.65-4.07-.43-5.49.44-2.96,1.41-5.59,2.88-7.8,2.47-3.76,6.96-8.67,11.38-11.15.79-.44,1.56-.88,2.32-1.32,4.78-2.74,9.3-5.32,14.88-6.01,1.09-.13,2.09.64,2.23,1.74.14,1.1-.64,2.09-1.74,2.23-4.79.59-8.77,2.87-13.38,5.51-.77.44-1.56.89-2.35,1.34-3.81,2.14-7.86,6.62-10,9.87-1.15,1.72-1.9,3.8-2.26,6.19-.23,1.48-.18,2.53.15,3.3.56.99,4.83,2.52,6.35,2.27,1.09-.19,2.12.55,2.31,1.64.18,1.09-.55,2.12-1.64,2.3-.27.04-.57.07-.91.07Z" fill="#2e4c4a"/>
        <path d="M431.84,456.85c-.06,0-.12,0-.19,0-3.51-.09-6.82-2.45-8.05-5.73-1.83-4.86,1-9.84,3.97-12.63.87-.82,1.63-1.57,2.35-2.29,1.64-1.63,3.18-3.17,5.44-4.86,1.55-1.17,3.43-2.32,5.24-3.43,1.52-.93,2.96-1.82,4.18-2.68l.28-.2c2.81-2,6.66-4.74,11.43-4.74,1.1,0,2,.9,2,2s-.9,2-2,2c-3.49,0-6.48,2.12-9.11,4l-.29.2c-1.33.94-2.89,1.9-4.4,2.83-1.74,1.07-3.53,2.17-4.93,3.22-2.04,1.53-3.42,2.91-5.02,4.5-.75.74-1.53,1.52-2.43,2.37-2.24,2.1-4.02,5.49-2.96,8.31.67,1.77,2.52,3.09,4.41,3.14,2.21.07,5.92-1.85,6.57-3.34.44-1.01,1.62-1.47,2.63-1.03,1.01.44,1.47,1.62,1.03,2.63-1.41,3.23-6.64,5.74-10.15,5.74Z" fill="#2e4c4a"/>
        <path d="M455.67,465.52c-4.05,0-8.1-.67-11.95-2.04-1.02-.36-2.1-.8-3.09-1.52-3.93-2.85-4.23-8.62-2.25-12.56,1.9-3.77,5.4-6.31,8.53-8.38,2.23-1.48,5.49-2.93,8.95-4.47,1.59-.71,3.23-1.44,4.84-2.2,1-.47,2.19-.05,2.66.95.47,1,.05,2.19-.95,2.66-1.63.77-3.31,1.52-4.93,2.24-3.3,1.47-6.42,2.85-8.36,4.14-2.83,1.88-5.71,3.95-7.17,6.85-1.2,2.39-1.15,5.94,1.02,7.52.59.43,1.35.73,2.09.99,10.61,3.78,23.46,1.35,31.96-6.04.83-.72,2.1-.64,2.82.2.72.83.64,2.1-.2,2.82-6.62,5.76-15.29,8.83-23.98,8.83Z" fill="#2e4c4a"/>
        <path d="M510.12,391.6c-.27,0-.54-.05-.79-.16-.54-.23-.95-.68-1.12-1.24l-18.24-58.06c-.33-1.05.25-2.18,1.31-2.51,1.05-.33,2.18.25,2.51,1.31l17.54,55.84c40-19.68,85.18-41.53,133.11-42.59.73-.05,1.38.35,1.75.96s.39,1.37.05,2l-4.31,7.93c-.53.97-1.74,1.33-2.71.8-.97-.53-1.33-1.74-.8-2.71l2.64-4.86c-46.62,2.03-90.89,23.82-130.06,43.1-.28.14-.58.21-.88.21Z" fill="#2e4c4a"/>
        <path d="M408.48,351.65c-2.48,0-5-.34-7.54-1.1-2.89-.88-6.91-2.7-9.65-6.45-2.62-3.58-3.31-8.14-1.79-11.88.41-1.02,1.58-1.52,2.6-1.11,1.02.41,1.52,1.58,1.1,2.6-.98,2.43-.47,5.58,1.31,8.02,2.08,2.85,5.27,4.28,7.58,4.98,12.64,3.83,25.49-5.02,32.02-10.63,2.77-2.38,5.49-4.99,8.11-7.51,6.33-6.07,12.87-12.35,20.96-16.32.99-.49,2.19-.08,2.68.91.49.99.08,2.19-.91,2.68-7.53,3.7-13.57,9.49-19.95,15.62-2.67,2.56-5.42,5.21-8.28,7.66-5.9,5.07-16.57,12.53-28.24,12.53Z" fill="#2e4c4a"/>
        <path d="M475.44,334.59c-.77,0-1.51-.45-1.84-1.21-9.93-23.06-13-52.06-8.66-81.65.39-2.64,2.3-6.09,4.52-10.08,2.35-4.22,5.56-10.01,4.88-12.35-1.14-3.93-5.62-12.08-10.47-14.29-1.51-.69-2.89-.73-4.23-.11-2.22,1.02-4.28,4.58-6.27,8.02-3.05,5.27-6.2,10.71-11.46,9.76-6.84-1.25-10.52-8.42-11.59-14.18-.42-2.27-.61-4.56-.8-6.79-.29-3.46-.56-6.74-1.64-9.79-4-11.35-17.6-15.82-25.36-17.47-3.12-.66-6.37-1.18-9.52-1.69-8.16-1.3-16.6-2.65-24.1-6.67-1.99-1.07-4.49-2.62-6.07-5.16-2.47-3.97-1.79-8.77-1.07-12.04,3.76-16.97,11.28-27.83,21.42-38.92,19.37-21.19,57.85-19.58,77.04-10.36,7.5,3.6,12.58,11.36,17.49,18.86,2.24,3.42,4.35,6.65,6.61,9.37,4.66,5.6,9.47,11.38,13.65,17.65,19.29,28.98,23.08,65.14,26.42,97.04.12,1.1-.68,2.08-1.78,2.2-1.1.11-2.08-.68-2.2-1.78-3.29-31.44-7.03-67.08-25.77-95.24-4.06-6.09-8.8-11.8-13.39-17.31-2.41-2.89-4.58-6.22-6.89-9.74-4.61-7.04-9.38-14.32-15.87-17.44-18.49-8.88-54.96-9.58-72.35,9.45-9.7,10.62-16.89,20.98-20.46,37.09-.91,4.11-.73,6.99.56,9.06.84,1.35,2.25,2.51,4.56,3.74,6.91,3.7,14.65,4.94,22.85,6.25,3.2.51,6.5,1.04,9.72,1.72,8.57,1.82,23.64,6.85,28.29,20.05,1.25,3.54,1.55,7.22,1.85,10.79.18,2.22.36,4.32.74,6.39.84,4.51,3.54,10.1,8.38,10.98,2.49.46,4.92-3.76,7.28-7.83,2.31-3.98,4.69-8.1,8.07-9.65,2.39-1.1,5.01-1.06,7.57.1,6.33,2.89,11.36,12.38,12.65,16.82,1.14,3.94-1.95,9.51-5.23,15.4-1.86,3.34-3.77,6.79-4.06,8.71-4.24,28.87-1.26,57.1,8.38,79.49.44,1.01-.03,2.19-1.05,2.63-.26.11-.53.16-.79.16Z" fill="#2e4c4a"/>
        <path d="M334.37,258.11c-.25,0-.5-.05-.75-.15-8.48-3.41-15.34-11.32-18.83-21.68-3.06-9.11-3.3-18.98-3.1-28.28.26-12.33,1.24-24.77,2.91-36.98.91-6.64,2.14-14.31,5.3-21.32,6.77-15.03,21.43-25.03,33.21-33.06,6.84-4.67,13.92-9.49,22.07-12.21,9.28-3.09,18.62-2.63,25.62,1.26.97.54,1.31,1.75.78,2.72-.54.97-1.75,1.31-2.72.78-6.03-3.35-14.19-3.7-22.41-.96-7.62,2.54-14.46,7.21-21.08,11.72-11.36,7.75-25.51,17.39-31.82,31.4-2.94,6.53-4.12,13.86-4.99,20.22-1.65,12.06-2.62,24.35-2.88,36.53-.22,10.33.19,18.87,2.9,26.92,3.11,9.25,9.14,16.27,16.53,19.25,1.02.41,1.52,1.58,1.11,2.6-.31.78-1.06,1.25-1.86,1.25Z" fill="#2e4c4a"/>
        <path d="M334.54,232.27c-.35,0-.71-.09-1.04-.29-6.96-4.23-5.5-14.71-5.02-18.15,1.08-7.73,2.31-14.58,6.49-20.27,2.54-3.46,5.92-6.04,9.18-8.55,3.32-2.55,6.46-4.95,8.67-8.14.46-.66.88-1.35,1.32-2.09,1.13-1.87,2.3-3.81,4.16-5.29.86-.69,2.12-.55,2.81.31.69.86.55,2.12-.31,2.81-1.3,1.04-2.24,2.59-3.23,4.23-.46.76-.93,1.54-1.46,2.3-2.56,3.7-6.1,6.41-9.52,9.04-3.18,2.44-6.19,4.74-8.39,7.74-3.62,4.93-4.75,11.28-5.75,18.45-1.06,7.62-.04,12.25,3.13,14.18.94.57,1.24,1.8.67,2.75-.38.62-1.04.96-1.71.96Z" fill="#2e4c4a"/>
        <path d="M403,230.32c2.4,3.64.47,11.07-5.61,9.34-7.59-2.15.09-17.7,5.61-9.34Z" fill="#2e4c4a" fill-rule="evenodd"/>
        <path d="M346.19,235.55c-4.49-2.9-3.41-11.46,1.87-11.59,6.48-.16,7.14,12.18-.75,11.96-.06-.44-.68-.32-1.12-.37Z" fill="#2e4c4a" fill-rule="evenodd"/>
        <path d="M387.16,258.54c1.04-.95,2.25-.83,3.08-.05-.94,4.41-8.15,7.87-14.26,8.86-5.28.85-12.26-.33-12.86-4.68.44-.05.62-.25.62-.55.24-.06.48-.13.72-.19,4.42,3.57,14.85,3.31,20.46-1.62,1.22-.32,1.78-1.01,2.24-1.76Z" fill="#2e4c4a" fill-rule="evenodd"/>
      </g>
    </g>
    <path d="M277.11,58.25l3.71,28.86c.21,1.61,1.48,2.88,3.09,3.09l28.86,3.71c4.16.53,4.16,6.56,0,7.09l-28.86,3.71c-1.61.21-2.88,1.48-3.09,3.09l-3.71,28.86c-.53,4.16-6.56,4.16-7.09,0l-3.71-28.86c-.21-1.61-1.48-2.88-3.09-3.09l-28.86-3.71c-4.16-.53-4.16-6.56,0-7.09l28.86-3.71c1.61-.21,2.88-1.48,3.09-3.09l3.71-28.86c.53-4.16,6.56-4.16,7.09,0Z" fill="#90b7b6"/>
    <path d="M268.4,249.95l.68,5.28c.21,1.61,1.48,2.88,3.09,3.09l5.28.68c4.16.53,4.16,6.56,0,7.09l-5.28.68c-1.61.21-2.88,1.48-3.09,3.09l-.68,5.28c-.53,4.16-6.56,4.16-7.09,0l-.68-5.28c-.21-1.61-1.48-2.88-3.09-3.09l-5.28-.68c-4.16-.53-4.16-6.56,0-7.09l5.28-.68c1.61-.21,2.88-1.48,3.09-3.09l.68-5.28c.53-4.16,6.56-4.16,7.09,0Z" fill="#90b7b6"/>
    <path d="M570.94,177.85l2.22,17.26c.21,1.61,1.48,2.88,3.09,3.09l17.26,2.22c4.16.53,4.16,6.56,0,7.09l-17.26,2.22c-1.61.21-2.88,1.48-3.09,3.09l-2.22,17.26c-.53,4.16-6.56,4.16-7.09,0l-2.22-17.26c-.21-1.61-1.48-2.88-3.09-3.09l-17.26-2.22c-4.16-.53-4.16-6.56,0-7.09l17.26-2.22c1.61-.21,2.88-1.48,3.09-3.09l2.22-17.26c.53-4.16,6.56-4.16,7.09,0Z" fill="#90b7b6"/>
  </g>
  <g>
    <g>
      <ellipse cx="760.33" cy="468.77" rx="63.25" ry="53.74" fill="#2d4d4a" opacity=".3"/>
      <ellipse cx="756.27" cy="464.11" rx="63.25" ry="53.74" fill="#90b7b6"/>
      <path d="M805.63,455.08c-.57-27.02-22.13-49.1-46.04-48.64-24.85.48-41.62,12.51-45.3,35.94-2.89-1.08-8.87-3.16-11.86-3.16-4.02,0-8.76,0-9.47,3.79-.71,3.79-1.2,10.54,1.8,13.96,4.36,4.97,9.43,8.16,17.85,10.89l4.38,1.37c5.5,20.66,25.25,37.29,46.03,36.21,10.35-.54,43.55-5.39,42.6-50.36Z" fill="#507f78"/>
      <path d="M802,450.84c-.57-27.02-22.13-49.1-46.04-48.64-24.85.48-41.62,12.51-45.3,35.94-2.89-1.08-8.87-3.16-11.86-3.16-4.02,0-8.76,0-9.47,3.79-.71,3.79-1.2,10.54,1.8,13.96,4.36,4.97,9.43,8.16,17.85,10.89l4.38,1.37c5.5,20.66,25.25,37.29,46.03,36.21,10.35-.54,43.55-5.39,42.6-50.36Z" fill="#fef7e8"/>
      <path d="M710.35,453.42l1.78,9.75s-4.65-.14-9.53-3.1-12.45-8.34-11.46-9.47,1.92-1.92,7.91-1.66c5.44.24,11.3,4.47,11.3,4.47Z" fill="#eae4d2"/>
      <path d="M717.51,447.2c0-20.56,16.95-37.22,37.87-37.22s37.87,16.66,37.87,37.22-16.72,35.36-37.63,35.36-38.11-14.81-38.11-35.36Z" fill="#eae4d2"/>
      <path d="M712.13,463.17s10.08,27.65,46.32,28.16c31.28.44,42.62-29.49,42.63-49.16,0,0,4.77,25.15-7.28,41.46-11.12,15.06-22.51,17.22-34.4,17.57-10.95.32-38.56-6.49-47.27-38.03Z" fill="#eae4d2"/>
      <ellipse cx="755.97" cy="449.54" rx="35.86" ry="33.02" fill="#b37e4b"/>
      <path d="M785.67,444.22c-7.7-10.1-24.17-10.65-35.27-5.21-6.74,3.31-16.93,11.89-16.57,23.2.72,22.21,17.27,20.34,24.85,20.35,15.15.04,30.2-12.34,31.01-25.33.43-6.99-3.32-12.1-4.02-13.02Z" fill="#d6a570"/>
      <path d="M800.77,439.24c2.82,11.08,3.75,21.87-.75,33.76-4.82,12.72-15.59,23.24-28.78,26.54-11.93,2.98-26.25,1.23-36.6-5.4-10.35-6.63-17.54-18.29-22.51-29.53-6.14-1.02-11.61-3.6-16.87-6.91-2.13-1.34-4.22-2.93-5.37-5.17-1.31-2.54-1.24-5.55-1.13-8.41.12-3.13.44-6.68,2.92-8.59,1.62-1.25,3.8-1.47,5.85-1.38,4.54.19,9.01,1.66,12.78,4.19.19-7.18,4.25-14.16,8.39-20.03,8.49-12.05,25.75-17.14,37.28-16.69,0,0,35.32.4,44.81,37.63Z" fill="none" stroke="#2e4c4a" stroke-linecap="round" stroke-linejoin="round" stroke-width="2.6"/>
      <path d="M691.38,452.55c-.12-.69.28-1.39.83-1.81s1.25-.62,1.93-.77c4.99-1.1,10.39-.16,14.72,2.56.07,2.57,1.8,6.5,3.31,8.58" fill="none" stroke="#2e4c4a" stroke-linecap="round" stroke-linejoin="round" stroke-width="2.6"/>
    </g>
    <path d="M693.02,464.11c4.06,37.15,37.74,53.74,66.86,53.74s57.23-16.86,59.65-50.35c1.24-17.15-10.73-33.24-16.19-38.14" fill="none" stroke="#2e4c4a" stroke-linecap="round" stroke-linejoin="round" stroke-width="2.6"/>
  </g>
  <g>
    <path d="M718.97,150.34c-9.19,1.44-17.9,6.84-26.22,10.74-6.8,3.19-22.97,19.95-22.97,19.95,0,0,12.49-4.78,15.22-4.46,8.49.98,10.77,4.39,18.19-.54,3.7-2.46,4.13-8.79,7.36-11.83,3.13-2.95,8.59-2.54,9.07-6.89.4-.08.81-.16,1.22-.22,4.44-.69,2.55-7.44-1.86-6.75Z" fill="#78a094"/>
    <path d="M751.69,85.35c-14.03,1.63-29.88,1.66-42.96,7.54-5.37,2.41-10.03,6.23-13.13,10.95-1.16,1.29-2.13,2.64-2.7,4.02-.52,1.26-.67,2.3-.55,3.15-.83,3.12-1.02,6.46-.4,9.92.37,2.06,3.42,3.39,5.14,2.09,3.29-2.49,8.33-1.45,12.2-2.75,4.38-1.48,8.18-4.28,11.97-6.85l18.16-12.29c.53-.21.98-.52,1.33-.9,2.27-1.54,4.54-3.07,6.81-4.61,1.06-.72,1.58-1.86,1.61-3,.84-.09,1.67-.18,2.5-.28,4.42-.52,4.47-7.52,0-7Z" fill="#78a094"/>
    <path d="M771.75,79.3c-.05.49-.15.97-.26,1.44-.75.39-1.38,1.07-1.67,2.1-.31,1.08-.64,2.16-.99,3.22-2.34,3.18-5.56,5.99-7.78,8.88-3.53,4.6-6.29,9.63-8.4,15.02-4.32,11.09-5.09,23.18-2.67,34.8,1,4.41,7.67,2.53,6.75-1.86-.63-2.78,4.22-4.83,6.01-6.38,1.7-1.48,3.03-3.24,4.12-5.21,2.55-4.64,4.27-9.95,5.75-15.02,2.85-9.78,4.15-19.94,4.11-30.11,1.04-2.13,1.78-4.4,2.04-6.88.47-4.48-6.54-4.44-7,0Z" fill="#78a094"/>
    <path d="M852.74,25.91c-2.14-4.49-8.95-3.18-12.99-3.24-7.11-.1-14.37-.59-21.44.28-6.36.79-11.47,3.56-17.35,5.8-1.99.76-4.19,1.28-6.06,2.17-4.74,1.16-9.29,2.75-13.24,5.16-3.84,2.34-.33,8.39,3.53,6.04,1.97-1.2,4.14-2.17,6.42-2.98.62.6,1.46.99,2.43,1.06,18.25,1.3,36.45-1.46,53.48-8.16.5-.2.92-.48,1.25-.8.31-.02.62-.05.94-.07,2.76-.22,4.21-2.78,3.02-5.27Z" fill="#78a094"/>
    <path d="M715.61,186.85c-.56-2.47-3.65-4.29-5.75-1.87-19.25,22.13-29.42,37.42-24.3,66.29.69,3.91,8.94,17.46,8.84,13.56-.11-4.36-.32-9.25,4.22-11.35,3.27-1.51,6.52-2.03,9.34-4.46,5.44-4.7,7.12-12.14,8-18.96.25-1.97.47-3.95.69-5.92.69-2.12.85-4.34.68-6.61.54-5.64,1.03-11.29,1.58-16.91.36-3.69.9-12.13-3.3-13.77Z" fill="#78a094"/>
    <path d="M874.56.69c-12.07,18.38-30.56,31.05-49.39,41.73-18.85,10.7-38.67,19.76-56.36,32.42-8.65,6.19-16.81,13.18-23.63,21.38-7.04,8.47-12.28,18.03-15.85,28.44-7.41,21.59-8.61,45.52-21.15,65.16-6.63,10.38-15.52,19.34-20.5,30.74-2.38,5.44-3.91,11.32-3.58,17.3.3,5.37,2.05,10.66,5.02,15.14,1.45,2.19,3.17,4.18,5.12,5.93.94.84,2.57.29,2.56-1.06-.02-4.21,5.27-6.42,8.14-8.56,3.81-2.84,6.94-6.48,9.29-10.6,5.13-8.99,6.47-19.53,5.55-29.72-.6-6.68-2.05-13.24-3.78-19.71-.5-1.86-3.39-1.07-2.89.8,2.93,10.97,5.27,22.64,3.2,33.99-1.68,9.2-6.22,18.17-14.11,23.52-3.67,2.49-8.43,5.24-8.4,10.28l2.56-1.06c-4.03-3.61-6.97-8.3-8.38-13.53-1.49-5.52-1.06-11.26.61-16.68,3.61-11.74,12.12-20.96,19.11-30.76,3.41-4.78,6.38-9.8,8.74-15.18s4.02-10.45,5.53-15.84c3.05-10.92,5.08-22.09,8.24-32.98,3.09-10.67,7.49-20.75,14.12-29.72,6.19-8.38,13.92-15.6,22.2-21.89,17.14-13.02,36.64-22.22,55.41-32.56,18.67-10.28,37.32-22.05,50.6-39.06,1.62-2.07,3.15-4.2,4.6-6.4,1.06-1.62-1.53-3.12-2.59-1.51h0Z" fill="#2e4c4a"/>
    <path d="M758.78,81.69c-4.23,4.23-10.38,4.96-16.08,5.23-6.23.3-12.37.37-18.49,1.77-12.31,2.82-23.79,10.13-28.92,22.04-2.66,6.18-3.45,13.11-1.55,19.62.42,1.43,2.47,1.42,2.89,0,.29-.98.27-1.95.15-2.95-.09-.72-.52-2.08,0-2.71.33-.4,1.16-.5,1.62-.63.57-.16,1.15-.33,1.72-.51,1.28-.39,2.55-.83,3.81-1.29,4.81-1.77,9.45-3.98,13.94-6.43s8.94-5.2,13.31-7.97,8.56-5.39,12.66-8.35c4.47-3.23,8.7-6.82,12.13-11.16,1.19-1.5-.92-3.64-2.12-2.12-6.36,8.03-15.28,13.38-23.8,18.8-8.95,5.69-18.11,11.29-28.17,14.79-1.41.49-2.83.94-4.26,1.34-1.25.35-2.54.71-3.32,1.84-1.44,2.09.11,4.35-.54,6.54h2.89c-3.37-11.57,2.6-23.96,12.03-30.79,5.1-3.69,11.02-6.04,17.15-7.35s11.71-1.19,17.64-1.52c6.27-.35,12.82-1.44,17.44-6.07,1.37-1.37-.76-3.49-2.12-2.12h0Z" fill="#2e4c4a"/>
    <path d="M779.65,67.83c-4.16,9.75-11.4,17.63-17.6,26.08-6.41,8.74-11.36,18.4-11.11,29.51.15,6.8,2,13.45,5.1,19.49l2.36-1.82c-1.38-1.16-1.18-2.91-.46-4.42.94-1.95,2.67-3.04,4.53-4.01,2.06-1.08,4.18-2,6-3.48s3.02-3.47,3.9-5.61,1.42-4.57,1.94-6.89c.63-2.83,1.18-5.69,1.66-8.55.9-5.46,1.53-10.97,1.87-16.5s-.42-12.19,2.19-17.46c.86-1.72-1.73-3.25-2.59-1.51-2.45,4.94-2.22,10.46-2.44,15.83-.25,5.99-.83,11.97-1.77,17.89-.46,2.87-.99,5.72-1.6,8.56-.55,2.57-1.07,5.22-2.07,7.66s-2.48,4.16-4.69,5.45c-2.06,1.21-4.34,2.06-6.3,3.45-3.45,2.45-6.23,8.4-2.28,11.71,1.29,1.08,3.16-.25,2.36-1.82-5.22-10.19-6.32-22.18-1.83-32.84,3.9-9.27,10.85-16.85,16.78-24.83,3.35-4.5,6.46-9.21,8.66-14.39.75-1.76-1.83-3.29-2.59-1.51h0Z" fill="#2e4c4a"/>
    <path d="M856.71,19.84c-10.21,3.75-21.19,1.01-31.74,1.23-5.42.11-10.67,1.17-15.74,3.08s-10.01,4.51-14.86,7.07c-5.88,3.11-11.72,6.31-17.5,9.6l1.51,2.59c4.28-3.08,9.63-2.89,14.64-2.36,5.3.56,10.51,1.29,15.86,1.13,10.63-.32,21.14-2.97,30.68-7.67,5.4-2.66,10.44-6.01,15.02-9.92,1.47-1.26-.66-3.37-2.12-2.12-8.06,6.88-17.69,11.79-27.93,14.46-5.12,1.33-10.36,2.1-15.65,2.25s-10.42-.55-15.66-1.11c-5.57-.6-11.6-.67-16.35,2.75-1.54,1.11-.2,3.56,1.51,2.59,5.08-2.89,10.2-5.71,15.35-8.45,4.85-2.59,9.72-5.26,14.82-7.33s10.14-3.34,15.53-3.53,10.6.38,15.9.63c5.91.27,11.92.07,17.53-1.98,1.8-.66,1.02-3.56-.8-2.89h0Z" fill="#2e4c4a"/>
    <path d="M721.82,147.01c-6.8,6.28-14.63,10.84-23.17,14.32-4.38,1.78-8.68,3.62-12.6,6.28s-7.38,5.7-10.8,8.86l2.12,2.12c2.59-2.51,7.25-.51,10.2.19,4.05.96,8.4,1.57,12.34-.18s6.52-5.29,9.18-8.36c2.98-3.44,5.85-6.97,8.62-10.58,3.12-4.06,6.11-8.22,8.96-12.48,1.08-1.61-1.52-3.11-2.59-1.51-4.98,7.44-10.38,14.59-16.2,21.39-1.43,1.68-2.88,3.35-4.37,4.96-1.38,1.49-2.86,2.94-4.72,3.81-3.8,1.77-8.27.61-12.12-.38s-8.27-2.04-11.41,1.01c-1.39,1.35.7,3.43,2.12,2.12,3.4-3.13,6.88-6.21,10.75-8.76,4.08-2.68,8.56-4.45,13.05-6.31,8.4-3.48,16.08-8.21,22.77-14.38,1.42-1.31-.7-3.43-2.12-2.12h0Z" fill="#2e4c4a"/>
    <path d="M835.67,27.53c-8.22,1.02-16.44,2.04-24.66,3.06-1.89.23-1.91,3.24,0,3,8.22-1.02,16.44-2.04,24.66-3.06,1.89-.23,1.91-3.24,0-3h0Z" fill="#2e4c4a"/>
    <path d="M736.99,93.29c-6.62,2.69-13.24,5.39-19.85,8.08-.75.3-1.28,1-1.05,1.85.2.71,1.09,1.36,1.85,1.05,6.62-2.69,13.24-5.39,19.85-8.08.75-.3,1.28-1,1.05-1.85-.2-.71-1.09-1.36-1.85-1.05h0Z" fill="#2e4c4a"/>
    <path d="M767.14,100.72c-3.54,3.97-6.16,8.67-7.63,13.78-.54,1.86,2.36,2.65,2.89.8,1.33-4.61,3.67-8.88,6.86-12.46.54-.6.6-1.53,0-2.12-.55-.55-1.58-.61-2.12,0h0Z" fill="#2e4c4a"/>
    <path d="M697.18,172.46c2.04-1.62,4.08-3.24,6.13-4.86.28-.22.44-.72.44-1.06,0-.37-.16-.81-.44-1.06s-.66-.46-1.06-.44c-.42.02-.73.18-1.06.44-2.04,1.62-4.08,3.24-6.13,4.86-.28.22-.44.72-.44,1.06,0,.37.16.81.44,1.06s.66.46,1.06.44c.42-.02.73-.18,1.06-.44h0Z" fill="#2e4c4a"/>
    <path d="M708.99,198.25c.37,8.35-1.57,16.62-5.66,23.91-.95,1.69,1.64,3.2,2.59,1.51,4.34-7.73,6.47-16.56,6.07-25.42-.09-1.92-3.09-1.93-3,0h0Z" fill="#2e4c4a"/>
  </g>
  <g>
    <path d="M851.91,73.1c3.88-.09,6.91,8.07,10.77,18.46,3.26,8.79,10.36,27.91,4.49,32.04-4.73,3.33-17.73-3.15-23.21-13.26-8.28-15.29,1.65-37.1,7.94-37.24Z" fill="#78a094"/>
    <path d="M830.33,116.13c3.21,1.44-.21,26.14-11.28,37.91-9.19,9.76-11.59,15.51-11.59,15.51,0,0-5.41-16.06,2.99-31.04,4.22-7.53,16.96-23.68,19.87-22.38Z" fill="#78a094"/>
    <path d="M844.84,163.31c3.49-2.6,11.5.45,15.83,5.26,5.94,6.59,1.74,12.86,7.02,22.6,5.67,10.47,15.67,12.73,14.76,15.04-1.01,2.58-14.57,2.53-24.65-4.7-14.57-10.44-18.95-33.74-12.96-38.21Z" fill="#78a094"/>
    <path d="M841.86,214.87c5.49,4.98.09,23.37-7.76,29.92-11.69,9.75-27.22,14.91-26.54,26.38-.82-2.39-8.38-28.7,4.93-44.73,8.42-10.14,24.13-16.32,29.37-11.57Z" fill="#78a094"/>
    <path d="M878.28,46.99s-10.11-7.58-33.11-2.98c-21.33,5.87-30.25,23.97-28.07,26.73.72.91,6.56-6.29,11.71-5.52,5.15.76,15.16.52,23.07-1.57,4.23-1.12,26.4-16.66,26.4-16.66Z" fill="#78a094"/>
    <g>
      <path d="M923.73,41.65c-14.94-3.9-30.84-1.93-44.85,4.34s-26.16,17.27-33.99,30.79c-8.11,13.99-11.95,30.3-11.73,46.42.12,8.55,1.51,16.95,3.61,25.22,2.32,9.14,5.28,18.13,7.08,27.4,2.77,14.26,2.27,31.46-8.31,42.65-1.2,1.27-2.52,2.44-3.94,3.47-1.55,1.12-.05,3.73,1.51,2.59,12.01-8.7,15.92-24.31,15.1-38.48-1.05-18.09-9.19-34.81-11.37-52.71-1.94-15.89.13-32.43,6.61-47.12,6.32-14.33,16.73-26.47,30.36-34.29s28.66-11.03,43.6-8.57c1.86.31,3.7.7,5.52,1.18s2.67-2.4.8-2.89h0Z" fill="#2e4c4a"/>
      <path d="M842.19,209.32c-9.79.65-19.89,3.7-27,10.76-7.56,7.51-10.3,18.44-10.41,28.8-.08,7.07.96,14.09,1.97,21.07.25,1.76,2.85,1.19,2.95-.4.27-4.38,3.69-7.82,7.19-10.07,4.16-2.67,8.87-4.37,12.82-7.37,7.38-5.61,11.23-14.56,12.81-23.47,1.06-5.94,1.28-11.99,1.48-18.01.06-1.93-2.94-1.93-3,0-.33,10.06-.67,20.62-5.43,29.74-2.09,4.01-4.98,7.61-8.76,10.14-4,2.69-8.62,4.32-12.54,7.13s-7.25,6.85-7.57,11.91l2.95-.4c-1.57-10.81-3.17-22.07-.22-32.8,1.27-4.62,3.37-9.1,6.55-12.73,3-3.43,6.81-6.02,10.98-7.83,4.8-2.09,10.04-3.14,15.24-3.49,1.92-.13,1.93-3.13,0-3h0Z" fill="#2e4c4a"/>
      <path d="M834.96,106.65c-9.01,17-27.67,28.44-30.66,48.57-.77,5.16-.26,10.28,1.86,15.08l2.36-1.82c-1.06-1.15-.59-2.98.23-4.14,1.09-1.55,2.9-2.49,4.47-3.46,3.19-1.98,5.95-4.48,8.25-7.45,4.96-6.41,7.51-14.25,8.79-22.17.81-5.01,1.2-10.08,1.57-15.14.14-1.93-2.86-1.92-3,0-.66,9.04-1.34,18.28-4.77,26.77-1.47,3.63-3.49,7.13-6.07,10.08-1.24,1.42-2.61,2.74-4.12,3.87-1.63,1.22-3.47,2.14-5.1,3.36-3.17,2.38-5.5,6.98-2.36,10.4,1.24,1.35,3-.37,2.36-1.82-3.67-8.31-1.29-17.81,2.78-25.5,4.39-8.3,11.09-15,17.03-22.17,3.36-4.06,6.52-8.29,8.99-12.95.9-1.71-1.69-3.22-2.59-1.51h0Z" fill="#2e4c4a"/>
      <path d="M880.56,45.59c-10.85-2.04-21.95-4.08-33.01-2.51-8.48,1.21-16.81,4.96-22.66,11.33-3.14,3.42-5.45,7.55-6.45,12.1-.43,1.94,2.16,2.54,2.89.8,1.74-4.16,7.8-3.24,11.29-3.03,4.09.25,8.17.03,12.22-.57,8-1.18,15.79-4.03,22.7-8.24,3.88-2.37,7.49-5.19,10.74-8.37,1.38-1.35-.74-3.48-2.12-2.12-5.94,5.83-13.16,10.32-21.01,13.09-3.91,1.38-7.98,2.38-12.1,2.89s-8.53.42-12.84.17c-4.65-.27-9.78.63-11.78,5.4l2.89.8c1.69-7.67,7.32-13.57,14.09-17.22,8.18-4.41,17.6-5.07,26.71-4.3,5.93.5,11.79,1.6,17.63,2.7,1.89.36,2.7-2.54.8-2.89h0Z" fill="#2e4c4a"/>
      <path d="M850.85,74.16c11,9.16,9.42,25.36,11.42,38.09.66,4.19,1.76,8.27,3.61,12.11l.9-2.2c-7.31,1.69-14.68-2.82-18.15-9.13-4.03-7.32-3.47-16.19-1.05-23.92,1.52-4.87,3.76-9.45,6.13-13.96.9-1.71-1.69-3.23-2.59-1.51-4.49,8.53-8.62,17.73-8.43,27.57.16,8.7,3.89,17.44,11.75,21.81,4.01,2.23,8.65,3.07,13.14,2.04,1.01-.23,1.3-1.37.9-2.2-3.36-7-3.79-14.88-4.48-22.48-.61-6.7-1.54-13.44-4.42-19.59-1.56-3.33-3.76-6.37-6.59-8.73-1.47-1.23-3.61.88-2.12,2.12h0Z" fill="#2e4c4a"/>
      <path d="M845.6,165.56c3.29-1.53,7-.52,9.91,1.38,3.4,2.22,5.57,5.63,6.93,9.39,2.88,7.92,2.96,16.68,7.47,24.01,2.2,3.58,5.3,6.49,9.32,7.87v-2.89c-6.78,1.82-13.85-.8-19.04-5.25-5.86-5.03-9.09-12.22-11.03-19.55-1.17-4.41-1.9-8.92-2.55-13.43-.27-1.9-3.17-1.09-2.89.8,1.23,8.51,2.8,17.17,6.9,24.83,3.65,6.83,9.54,12.48,16.95,15,4.02,1.37,8.35,1.6,12.46.5,1.5-.4,1.35-2.43,0-2.89-7.96-2.73-10.46-12.13-12.03-19.44-1.79-8.32-3.78-17.39-11.73-22-3.76-2.18-8.17-2.78-12.17-.91-1.75.81-.23,3.4,1.51,2.59h0Z" fill="#2e4c4a"/>
      <path d="M846.16,167.86c4.87,2.82,8.18,8.07,8.52,13.71.12,1.92,3.12,1.93,3,0-.4-6.69-4.19-12.93-10.01-16.3-1.67-.97-3.19,1.62-1.51,2.59h0Z" fill="#2e4c4a"/>
      <path d="M826.76,122.89c-2.35,5.48-4.7,10.95-7.05,16.43-.32.74-.22,1.61.54,2.05.63.37,1.73.21,2.05-.54,2.35-5.48,4.7-10.95,7.05-16.43.32-.74.22-1.61-.54-2.05-.63-.37-1.73-.21-2.05.54h0Z" fill="#2e4c4a"/>
      <path d="M850.97,75.93c-1.19,9.32-.53,18.79,1.89,27.87.5,1.86,3.39,1.07,2.89-.8-2.35-8.83-2.94-18.01-1.78-27.07.24-1.91-2.76-1.89-3,0h0Z" fill="#2e4c4a"/>
      <path d="M874.63,45.54c-9.95,1.89-19.9,3.77-29.85,5.66-1.89.36-1.09,3.25.8,2.89,9.95-1.89,19.9-3.77,29.85-5.66,1.89-.36,1.09-3.25-.8-2.89h0Z" fill="#2e4c4a"/>
    </g>
  </g>
  <g>
    <path d="M103.77,463.03l44.58-10.35s4.98,2.4,3.42,4.11c-1.57,1.71-35,7.8-35,7.8,0,0,14.29,1.19,21.51,1.98,7.22.79,15.71,5.01,15.71,5.01,0,0-.3,6.07-2.23,6.71-1.93.64-6.63-5.88-22.89-8.6-14.31-2.4-25.12,0-25.12,0,0,0-4.31-5.37,0-6.65Z" fill="#4a3f3f"/>
    <path d="M14.34,478.8l52.1-7.65,2.37,5.02s-10.63,2.11-23.49,11.77c-5.44,4.09-14.56,15.27-14.56,15.27l-5.97-2.89s17.15-20.73,27.35-21.51c10.2-.78-36.83,4.93-36.83,4.93,0,0-3.6-4.51-.98-4.93Z" fill="#4a3f3f"/>
    <rect x="73.57" y="466.72" width="25.85" height="5.92" transform="translate(-92.72 27.01) rotate(-11.61)" fill="#4a3f3f"/>
    <path d="M163.82,449.09l-7.35,1.69s-15.07-11.69-20.85-11.76c-5.79-.07-10.61-1.13-24.95,4.87-14.34,6.01-13.38,19.06-13.38,19.06,0,0-4.82-3.13-13.39-1.06-8.57,2.07-11.82,5.69-11.82,5.69,0,0-3.48-14.91-28.54-13.11-32.7,2.35-33.76,25.46-33.76,25.46l-6.23.37s-1.96-2.17-2.44,2.69c-.49,4.86,1.7,2.3,1.7,2.3l6.5-.64s3.62,32.3,37.84,26.93c34.23-5.37,29.17-30.55,27.86-35.13-1.31-4.58,1.07-4.34,1.07-4.34,0,0,2.65-4.82,7.85-5.79,5.19-.96,11.97.95,11.97.95-.43,5.77,8.39,21.23,15.76,24.66,7.37,3.44,25.65,9.1,39.08-2.11,13.43-11.21,7.87-29.72,7.8-31.53-.07-1.81,7.01-2.82,7.01-2.82,0,0,.92-.95,1.24-2.81.32-1.85-2.97-3.58-2.97-3.58ZM69.81,486.34c-1.67,12.14-12.98,17.87-14.4,18.56-12.09,5.88-26.9,1.16-34.77-7.89-1.82-2.09-6.75-7.76-6.27-15.25.77-11.79,14.49-20.64,26.52-21.65.94-.08,17.68-1.22,25.55,11.04.76,1.19,4.47,7.22,3.37,15.19ZM141.64,490.19c-11.14,5.83-22.12.88-23.98,0-7.92-3.76-16.78-12.62-16.11-23.86.81-13.43,14.71-21.47,24.9-22.9,1.91-.27,7.79-1.01,14.22,1.93,7.3,3.34,14.17,10.92,14.84,20.97.71,10.65-5.83,19.65-13.88,23.86Z" fill="#503837"/>
    <path d="M20.57,504.86l-7.41,6.94s-4.14,2.74,0,5.69c4.14,2.96,8.45-3.04,8.45-3.04,0,0,2.67-3.6,3.88-5.85,0,0-5.27-1.97-4.92-3.74Z" fill="#503837"/>
    <path d="M158.62,473.99l15.15,6.29s2.56,1.69,1.2,3.24-5.27,4.02-11.58-.1c-6.31-4.13-5.96-2.48-5.96-2.48,0,0-.15-7.18,1.2-6.94Z" fill="#503837"/>
    <path d="M126.94,443.43c15.31-.09,23.54,6.98,26.88,16.15,1.57,4.31,1.13,8.22.9,10.1-1.04,8.53-6.82,18.77-17.31,22.24-13.33,4.42-25.89-4.88-31.33-13.12-1.56-2.37-4.72-7.17-4.24-13.3.78-9.9,10.73-19,25.09-22.08Z" fill="#94d2df" opacity=".1"/>
    <path d="M38.06,460.05c2.68-.57,16.17-3.09,25.01,5.46,3.83,3.71,5.22,7.97,5.75,9.68.37,1.19,3.58,12.12-3.26,21.82-6.24,8.86-16.3,10.25-19.84,10.49-14.66.98-32.57-10.16-32.39-24.15.16-12.31,14.27-21.05,24.74-23.29Z" fill="#94d2df" opacity=".1"/>
    <path d="M2.81,485.29c.55.11,1.1.21,1.65.32-1.57.26-3.22-1.03-3.35-2.61-.13-1.59.85-2.7,2.44-2.69,2.08-.12,4.15-.24,6.23-.37,2.57-8.2,5.83-14.08,12.76-19.16,4.85-3.55,10.93-4.95,16.89-5.72,5.39-.69,10.9-.93,16.21.2,5.31,1.14,10.43,3.77,13.82,8.01,4.34,5.45,5.34,12.79,5.54,19.75.21,7.3-2.08,13.07-6.39,18.97-3.02,4.13-8.79,7.38-13.74,8.68s-17.71,1.29-22.42-.72c-12.9-5.53-16.9-9.8-22.42-22.9" fill="none" stroke="#25201f" stroke-linecap="round" stroke-linejoin="round" stroke-width="2.2"/>
    <path d="M73.91,466.33c6.59-4.19,10.61-6.22,23.38-3.37,2.02-8.34,4.77-13.62,12-18.25,4.15-2.66,10.59-4.73,15.48-5.37,6.76-.89,14.42.32,17.96,2.05,3.62,1.76,10.85,6.75,13.98,10.12,2.64-1.3,4.93-1.17,5.92-1.33" fill="none" stroke="#25201f" stroke-linecap="round" stroke-linejoin="round" stroke-width="2.2"/>
    <path d="M158.54,458.3c1.09,9.36,1.73,20.41-4.12,27.79-5.85,7.39-16.48,11.48-25.88,10.85-7.26-.49-17.73-3.76-22.33-9.4-4.42-5.41-8.63-14.51-10.61-21.21-4.23-.31-4.96-.6-9.16,0-4.2.6-7.37,1.63-10.37,4.64" fill="none" stroke="#25201f" stroke-linecap="round" stroke-linejoin="round" stroke-width="2.2"/>
    <path d="M162.63,450.18c1.62.12,1.62.33,2.78.88,1.16.55,1.72,2.1,1.18,3.26-.51,1.09-1.73,1.66-2.9,1.94-1.17.28-2.41.38-3.48.93-1.07.55-1.94,1.77-1.59,2.93" fill="none" stroke="#25201f" stroke-linecap="round" stroke-linejoin="round" stroke-width="2.2"/>
    <path d="M44.92,460.47c6.78,0,18.57,3.04,21.36,11.21,3.38,9.89,3.14,18.24-.69,24.14-3.79,5.84-11.06,9.41-21.05,10.32-.58.05-1.18.08-1.79.08-7.3,0-15.61-3.97-21.17-10.1-4.38-4.83-6.51-10.37-6-15.59,1.25-12.68,17.48-19.45,28.06-20.03.41-.02.83-.03,1.27-.03M44.92,458.27c-.48,0-.94.01-1.39.04-12.22.67-28.78,8.28-30.13,22.01-1.43,14.47,14.98,28.11,29.36,28.11.67,0,1.33-.03,1.99-.09,20.59-1.88,31.33-14.76,23.62-37.36-3.08-9.01-15.22-12.7-23.44-12.7h0Z" fill="#25201f"/>
    <path d="M129.19,443.34v2.2c7.5,0,17.83,3.41,22.27,13.03,4.71,10.2-.93,20.23-1.58,21.34-3.93,6.63-10.94,11.12-18.29,11.7-.55.04-1.12.07-1.69.07-7.13,0-14.8-3.52-20.02-9.18-4.36-4.73-6.51-10.41-6.05-16,.96-11.79,12.84-20.02,23.3-20.89.67-.06,1.37-.08,2.06-.08v-2.2M129.19,443.34c-.76,0-1.51.03-2.25.09-12.06.99-24.29,10.35-25.31,22.9-1.22,14.95,14.05,27.55,28.27,27.55.62,0,1.24-.02,1.86-.07,7.94-.63,15.66-5.43,20.01-12.78.67-1.14,6.91-12.07,1.69-23.38-4.51-9.78-15.03-14.31-24.27-14.31h0Z" fill="#25201f"/>
    <path d="M19.87,505.82c-2.2,2.05-4.41,4.1-6.61,6.15-.81.76-1.67,1.59-1.89,2.68-.37,1.86,1.44,3.61,3.32,3.78,1.88.17,3.68-.83,5.14-2.04,2.19-1.82,3.91-4.19,4.96-6.83" fill="none" stroke="#25201f" stroke-linecap="round" stroke-linejoin="round" stroke-width="2.2"/>
    <path d="M160.65,474.86c3.48,1.27,6.94,2.59,10.38,3.96,1.05.42,2.13.86,2.95,1.64.82.78,1.34,1.98.99,3.06-.39,1.21-1.7,1.88-2.96,2.08-2.98.49-5.91-.87-8.62-2.19l-4.77-2.32" fill="none" stroke="#25201f" stroke-linecap="round" stroke-linejoin="round" stroke-width="2.2"/>
    <path d="M15.33,478.29c16.83-1.44,33.6-3.68,50.22-6.71" fill="none" stroke="#25201f" stroke-linecap="round" stroke-linejoin="round" stroke-width="2.2"/>
    <path d="M15.31,483.73c12.31-1.4,24.59-3.04,36.83-4.93-4.28,2.01-7.99,3.96-11.7,6.9-5.18,4.1-8.85,9.07-14.26,14.62" fill="none" stroke="#25201f" stroke-linecap="round" stroke-linejoin="round" stroke-width="2.2"/>
    <path d="M30.76,503.21c9.68-12.05,21.44-23.32,36.57-27.04" fill="none" stroke="#25201f" stroke-linecap="round" stroke-linejoin="round" stroke-width="2.2"/>
    <path d="M76.9,473.99c2.17-.93,4.54-1.24,6.87-1.55,4.11-.54,8.22-1.07,12.33-1.61" fill="none" stroke="#25201f" stroke-linecap="round" stroke-linejoin="round" stroke-width="2.2"/>
    <path d="M103.77,463.03c14.94-3.03,29.8-6.41,44.58-10.13" fill="none" stroke="#25201f" stroke-linecap="round" stroke-linejoin="round" stroke-width="2.2"/>
    <path d="M150.7,456.79l-33.92,7.8c12.61.06,24.9,1.39,36.2,6.99" fill="none" stroke="#25201f" stroke-linecap="round" stroke-linejoin="round" stroke-width="2.2"/>
    <path d="M151.77,478.29c-15.67-9.68-32.81-11.7-49.5-9.17" fill="none" stroke="#25201f" stroke-linecap="round" stroke-linejoin="round" stroke-width="2.2"/>
  </g>
</svg>